<?xml version="1.0" encoding="UTF-8"?>
<svg version="1.1" xmlns="http://www.w3.org/2000/svg" width="265" height="214">
<path d="M0 0 C87.45 0 174.9 0 265 0 C265 70.62 265 141.24 265 214 C177.55 214 90.1 214 0 214 C0 143.38 0 72.76 0 0 Z " fill="#FDFDFD" transform="translate(0,0)"/>
<path d="M0 0 C1.64051079 0.42570786 1.64051079 0.42570786 3.31416321 0.86001587 C6.77177473 1.76024598 10.22373607 2.68024371 13.67578125 3.6015625 C17.13961738 4.51115443 20.60449729 5.41668075 24.0695343 6.32168579 C26.21420046 6.88344701 28.35796871 7.44865182 30.50065613 8.01791382 C36.30632401 9.55631202 42.11576877 10.96613191 47.98828125 12.2265625 C47.98828125 13.2165625 47.98828125 14.2065625 47.98828125 15.2265625 C47.42431641 15.36755371 46.86035156 15.50854492 46.27929688 15.65380859 C45.49232422 15.85055176 44.70535156 16.04729492 43.89453125 16.25 C40.31119792 17.14583333 36.72786458 18.04166667 33.14453125 18.9375 C32.27957031 19.15374023 31.41460937 19.36998047 30.5234375 19.59277344 C29.68683594 19.80192383 28.85023438 20.01107422 27.98828125 20.2265625 C27.18261719 20.42797852 26.37695312 20.62939453 25.546875 20.83691406 C24.81597656 21.01963867 24.08507812 21.20236328 23.33203125 21.390625 C22.22859375 21.66648437 21.12515625 21.94234375 19.98828125 22.2265625 C19.81375846 28.48029586 20.47305162 34.31201499 21.48828125 40.4765625 C21.77221728 42.23133832 22.05356674 43.98653509 22.33203125 45.7421875 C22.45771484 46.50821289 22.58339844 47.27423828 22.71289062 48.06347656 C22.98828125 50.2265625 22.98828125 50.2265625 22.98828125 54.2265625 C22.00472656 54.62746094 21.02117187 55.02835938 20.0078125 55.44140625 C10.60750403 59.28693481 1.25530587 63.22997286 -8.0534668 67.29272461 C-9.32637573 67.84391968 -9.32637573 67.84391968 -10.625 68.40625 C-11.37563721 68.73351074 -12.12627441 69.06077148 -12.8996582 69.39794922 C-18.18287819 71.47068632 -18.18287819 71.47068632 -21.00024414 70.64086914 C-21.69625732 70.30949951 -22.39227051 69.97812988 -23.109375 69.63671875 C-23.9024707 69.26796631 -24.69556641 68.89921387 -25.51269531 68.51928711 C-26.35799805 68.11331299 -27.20330078 67.70733887 -28.07421875 67.2890625 C-29.86100114 66.45623181 -31.64879029 65.6255582 -33.4375 64.796875 C-34.35354004 64.37051758 -35.26958008 63.94416016 -36.21337891 63.50488281 C-40.68867504 61.46050569 -45.22092358 59.5574696 -49.76171875 57.6640625 C-51.00320679 57.14501343 -51.00320679 57.14501343 -52.26977539 56.61547852 C-54.18284605 55.81698833 -56.09713505 55.02141795 -58.01171875 54.2265625 C-54.81542818 25.83398136 -54.81542818 25.83398136 -53.01171875 22.2265625 C-54.44893632 21.93350729 -55.88651702 21.64223315 -57.32421875 21.3515625 C-58.12472656 21.18914063 -58.92523438 21.02671875 -59.75 20.859375 C-64.49574214 19.93864419 -69.25546185 19.09133648 -74.01171875 18.2265625 C-74.01171875 27.7965625 -74.01171875 37.3665625 -74.01171875 47.2265625 C-73.35171875 47.5565625 -72.69171875 47.8865625 -72.01171875 48.2265625 C-72.01695557 49.17499023 -72.02219238 50.12341797 -72.02758789 51.10058594 C-72.0446522 54.62663381 -72.05717985 58.15263765 -72.06665039 61.67871094 C-72.0716724 63.20345757 -72.07849125 64.72819941 -72.0871582 66.25292969 C-72.09931724 68.44727769 -72.10496843 70.6415619 -72.109375 72.8359375 C-72.11461182 74.15561523 -72.11984863 75.47529297 -72.12524414 76.83496094 C-72.03483204 79.53604668 -71.8305323 81.6766241 -71.01171875 84.2265625 C-73.48671875 84.7215625 -73.48671875 84.7215625 -76.01171875 85.2265625 C-76.01171875 90.8365625 -76.01171875 96.4465625 -76.01171875 102.2265625 C-73.15664993 101.77337697 -70.30276176 101.31417898 -67.44921875 100.8515625 C-66.24942383 100.66207031 -66.24942383 100.66207031 -65.02539062 100.46875 C-61.41158906 99.87874158 -58.01586373 99.22783788 -54.5078125 98.1484375 C-50.1518329 96.99982165 -46.1230543 96.84310024 -41.63671875 96.8515625 C-40.37589478 96.85289185 -40.37589478 96.85289185 -39.08959961 96.85424805 C-31.73625868 96.99506735 -26.51886623 98.47771718 -20.69921875 103.0390625 C-19.10110182 104.45343515 -19.10110182 104.45343515 -17.19140625 103.95703125 C-14.73770418 103.13473325 -12.68487623 102.0278589 -10.44921875 100.7265625 C-2.3277712 96.01530119 7.84667038 95.99664303 16.9921875 97.828125 C17.83652344 98.08335938 18.68085938 98.33859375 19.55078125 98.6015625 C26.62462521 100.87875229 26.62462521 100.87875229 40.98828125 102.2265625 C40.98828125 79.4565625 40.98828125 56.6865625 40.98828125 33.2265625 C43.29828125 33.2265625 45.60828125 33.2265625 47.98828125 33.2265625 C47.98828125 58.3065625 47.98828125 83.3865625 47.98828125 109.2265625 C32.43272569 109.2265625 32.43272569 109.2265625 25.5859375 106.98046875 C12.02581843 103.04497555 -1.81745599 104.23545493 -14.07421875 110.9140625 C-15.39119048 111.67723073 -16.70542548 112.44525707 -18.01171875 113.2265625 C-18.47320312 112.90042969 -18.9346875 112.57429688 -19.41015625 112.23828125 C-29.99488535 105.14693112 -41.76930227 103.39653711 -54.28271484 105.63232422 C-57.30382029 106.28368403 -60.30241816 106.97828082 -63.28125 107.80297852 C-70.31708837 109.65334472 -75.06929225 109.2265625 -83.01171875 109.2265625 C-83.01171875 84.1465625 -83.01171875 59.0665625 -83.01171875 33.2265625 C-81.03171875 33.2265625 -79.05171875 33.2265625 -77.01171875 33.2265625 C-77.01171875 27.6165625 -77.01171875 22.0065625 -77.01171875 16.2265625 C-78.99171875 15.8965625 -80.97171875 15.5665625 -83.01171875 15.2265625 C-83.01171875 14.2365625 -83.01171875 13.2465625 -83.01171875 12.2265625 C-75.5307772 10.25349721 -68.04581376 8.29655112 -60.55553055 6.35929108 C-57.07645764 5.458955 -53.59892612 4.55341778 -50.12451172 3.63525391 C-46.76259348 2.74703567 -43.39716435 1.87344829 -40.02898407 1.0092926 C-38.13901044 0.52052747 -36.25281451 0.0172273 -34.36676025 -0.4864502 C-22.10548052 -3.60611847 -12.15682044 -3.29690855 0 0 Z " fill="#364E87" transform="translate(150.01171875,13.7734375)"/>
<path d="M0 0 C12.375 1.125 12.375 1.125 16.6875 2.5625 C17.51636719 2.83191406 18.34523438 3.10132813 19.19921875 3.37890625 C20.09060547 3.68634766 20.09060547 3.68634766 21 4 C20.4513673 7.91477454 19.89993612 11.82914379 19.34594727 15.74316406 C19.06574767 17.72700614 18.78774372 19.71115793 18.50976562 21.6953125 C18.33251953 22.94570313 18.15527344 24.19609375 17.97265625 25.484375 C17.81031494 26.63647461 17.64797363 27.78857422 17.48071289 28.97558594 C17.09961144 31.3732928 16.64447449 33.66283958 16 36 C16.67417969 36.10054687 17.34835938 36.20109375 18.04296875 36.3046875 C21.67260193 37.15815475 24.93066554 38.5948368 28.3125 40.125 C29.00384033 40.43195801 29.69518066 40.73891602 30.4074707 41.05517578 C33.35021665 42.36195561 36.2876295 43.68054293 39.22558594 44.99804688 C41.37775414 45.96113499 43.53253637 46.91818711 45.6875 47.875 C46.34596924 48.17293457 47.00443848 48.47086914 47.68286133 48.77783203 C54.22585342 51.81198101 54.22585342 51.81198101 61.03125 50.8828125 C62.74828125 50.01269531 62.74828125 50.01269531 64.5 49.125 C65.81611003 48.47721132 67.13392755 47.83288413 68.453125 47.19140625 C69.52916992 46.66571045 69.52916992 46.66571045 70.62695312 46.12939453 C75.11737792 43.99228495 79.68320516 42.02967434 84.25 40.0625 C85.16716797 39.66111816 86.08433594 39.25973633 87.02929688 38.84619141 C87.89103516 38.4754248 88.75277344 38.1046582 89.640625 37.72265625 C90.79353027 37.22390991 90.79353027 37.22390991 91.96972656 36.71508789 C94 36 94 36 97 36 C96.87882812 35.31486328 96.75765625 34.62972656 96.6328125 33.92382812 C96.08154688 30.78373434 95.54070405 27.64192892 95 24.5 C94.80921875 23.42234375 94.6184375 22.3446875 94.421875 21.234375 C93.42771207 15.41142067 92.66231165 9.90954619 93 4 C94 3 94 3 96.5625 2.9375 C97.7690625 2.9684375 97.7690625 2.9684375 99 3 C99 3.66 99 4.32 99 5 C102.46712111 6.15570704 105.5414956 6.32835293 109.1875 6.5625 C111.09595703 6.68818359 111.09595703 6.68818359 113.04296875 6.81640625 C114.01878906 6.87699219 114.99460937 6.93757813 116 7 C116 9.31 116 11.62 116 14 C118.31 14 120.62 14 123 14 C123 39.41 123 64.82 123 91 C122.67 91 122.34 91 122 91 C122 65.92 122 40.84 122 15 C119.69 15 117.38 15 115 15 C115 37.77 115 60.54 115 84 C108.64282648 84 104.11987839 83.84361409 98.125 82.5625 C96.84882813 82.29566406 95.57265625 82.02882813 94.2578125 81.75390625 C91 81 91 81 88 80 C77.45654043 79.32013633 68.35734678 79.01721469 59.6875 85.8125 C58 87 58 87 56.1796875 86.73046875 C53.72598543 85.90817075 51.67315748 84.8012964 49.4375 83.5 C40.62938816 78.39040393 29.39068687 78.83350284 19.51171875 80.63671875 C16.97779904 81.35518838 14.49164513 82.14831039 12 83 C7.02255297 84.07356701 3.35248309 84 -2 84 C-2 78.39 -2 72.78 -2 67 C-0.02 66.01 -0.02 66.01 2 65 C1.67 64.01 1.34 63.02 1 62 C0.90451399 59.73986416 0.86926464 57.47699478 0.8671875 55.21484375 C0.86623077 54.55795059 0.86527405 53.90105743 0.86428833 53.22425842 C0.86360887 51.83822534 0.86544686 50.45218905 0.86962891 49.06616211 C0.87498909 46.94182217 0.8696717 44.81769283 0.86328125 42.69335938 C0.86394191 41.3463537 0.86522281 39.99934815 0.8671875 38.65234375 C0.86887939 36.81144165 0.86887939 36.81144165 0.87060547 34.93334961 C1 32 1 32 2 30 C0.35 29.67 -1.3 29.34 -3 29 C-2.01 28.67 -1.02 28.34 0 28 C0 18.76 0 9.52 0 0 Z " fill="#B9D0F2" transform="translate(76,32)"/>
<path d="M0 0 C6.44316595 0.53569047 12.60397408 1.97154661 18.875 3.5 C19.82375 3.72558594 20.7725 3.95117188 21.75 4.18359375 C28.72600446 5.86300223 28.72600446 5.86300223 31 7 C38.45586864 7.47303094 44.77852533 6.05388888 51.9375 4.0625 C52.97712891 3.78470703 54.01675781 3.50691406 55.08789062 3.22070312 C60.16492468 1.93947953 60.16492468 1.93947953 65 0 C66.99960012 -0.039992 69.00047242 -0.04346799 71 0 C73.44795873 10.29774639 74.91800832 20.48558677 76 31 C74.52466797 31.60134766 74.52466797 31.60134766 73.01953125 32.21484375 C63.61922278 36.06037231 54.26702462 40.00341036 44.95825195 44.06616211 C44.109646 44.43362549 43.26104004 44.80108887 42.38671875 45.1796875 C41.63608154 45.50694824 40.88544434 45.83420898 40.11206055 46.17138672 C34.82884056 48.24412382 34.82884056 48.24412382 32.01147461 47.41430664 C31.31546143 47.08293701 30.61944824 46.75156738 29.90234375 46.41015625 C29.10924805 46.04140381 28.31615234 45.67265137 27.49902344 45.29272461 C26.6537207 44.88675049 25.80841797 44.48077637 24.9375 44.0625 C23.15071761 43.22966931 21.36292846 42.3989957 19.57421875 41.5703125 C18.65817871 41.14395508 17.74213867 40.71759766 16.79833984 40.27832031 C12.32304371 38.23394319 7.79079517 36.3309071 3.25 34.4375 C2.00851196 33.91845093 2.00851196 33.91845093 0.74194336 33.38891602 C-1.1711273 32.59042583 -3.0854163 31.79485545 -5 31 C-1.70175439 1.70175439 -1.70175439 1.70175439 0 0 Z " fill="#0D1728" transform="translate(97,37)"/>
<path d="M0 0 C1.98 0 3.96 0 6 0 C6 3.96 6 7.92 6 12 C6.99 12.33 7.98 12.66 9 13 C11.46021988 16.41972094 11.21720427 19.71159385 11.16015625 23.8125 C11.1523539 24.78860229 11.1523539 24.78860229 11.14439392 25.78442383 C11.126643 27.85651402 11.09549049 29.92810085 11.0625 32 C11.03480791 34.07184986 11.01009239 36.14362579 10.99131775 38.21557617 C10.97352582 40.0956141 10.94611632 41.9755537 10.91821289 43.85546875 C10.98610726 46.46585524 11.21801642 48.5295296 12 51 C9.525 51.495 9.525 51.495 7 52 C7 57.61 7 63.22 7 69 C9.85506882 68.54681447 12.70895699 68.08761648 15.5625 67.625 C16.76229492 67.43550781 16.76229492 67.43550781 17.98632812 67.2421875 C21.60012969 66.65217908 24.99585502 66.00127538 28.50390625 64.921875 C32.85988585 63.77325915 36.88866445 63.61653774 41.375 63.625 C42.63582397 63.62632935 42.63582397 63.62632935 43.92211914 63.62768555 C51.27546007 63.76850485 56.49285252 65.25115468 62.3125 69.8125 C63.91061693 71.22687265 63.91061693 71.22687265 65.8203125 70.73046875 C68.27401457 69.90817075 70.32684252 68.8012964 72.5625 67.5 C80.68394755 62.78873869 90.85838913 62.77008053 100.00390625 64.6015625 C100.84824219 64.85679688 101.69257813 65.11203125 102.5625 65.375 C109.63634396 67.65218979 109.63634396 67.65218979 124 69 C124 46.23 124 23.46 124 0 C126.31 0 128.62 0 131 0 C131 25.08 131 50.16 131 76 C115.44444444 76 115.44444444 76 108.59765625 73.75390625 C95.03753718 69.81841305 81.19426276 71.00889243 68.9375 77.6875 C67.62052827 78.45066823 66.30629327 79.21869457 65 80 C64.53851563 79.67386719 64.07703125 79.34773438 63.6015625 79.01171875 C53.0168334 71.92036862 41.24241648 70.16997461 28.72900391 72.40576172 C25.70789846 73.05712153 22.70930059 73.75171832 19.73046875 74.57641602 C12.69463038 76.42678222 7.9424265 76 0 76 C0 50.92 0 25.84 0 0 Z " fill="#4561A6" transform="translate(67,47)"/>
<path d="M0 0 C4.43059045 0.6607764 8.26368375 2.29305059 12.3125 4.125 C13.00384033 4.43195801 13.69518066 4.73891602 14.4074707 5.05517578 C17.35021665 6.36195561 20.2876295 7.68054293 23.22558594 8.99804688 C25.37775414 9.96113499 27.53253637 10.91818711 29.6875 11.875 C30.34596924 12.17293457 31.00443848 12.47086914 31.68286133 12.77783203 C38.22585342 15.81198101 38.22585342 15.81198101 45.03125 14.8828125 C46.1759375 14.30273438 47.320625 13.72265625 48.5 13.125 C49.81611003 12.47721132 51.13392755 11.83288413 52.453125 11.19140625 C53.52916992 10.66571045 53.52916992 10.66571045 54.62695312 10.12939453 C59.11737792 7.99228495 63.68320516 6.02967434 68.25 4.0625 C69.16716797 3.66111816 70.08433594 3.25973633 71.02929688 2.84619141 C71.89103516 2.4754248 72.75277344 2.1046582 73.640625 1.72265625 C74.79353027 1.22390991 74.79353027 1.22390991 75.96972656 0.71508789 C78 0 78 0 81 0 C81.495 3.465 81.495 3.465 82 7 C75.10848347 10.55577609 68.06119636 13.73843606 60.96362305 16.85595703 C59.60872024 17.45381871 58.2561749 18.05705073 56.90600586 18.66552734 C54.93092022 19.55518833 52.94899267 20.42764823 50.96484375 21.296875 C49.7955835 21.81604492 48.62632324 22.33521484 47.42163086 22.87011719 C41.36123604 24.87136636 36.83146378 24.30740769 31.05078125 21.8046875 C29.95443359 21.33546875 28.85808594 20.86625 27.72851562 20.3828125 C26.60123047 19.88523437 25.47394531 19.38765625 24.3125 18.875 C23.20455078 18.400625 22.09660156 17.92625 20.95507812 17.4375 C13.5026787 14.21436992 6.22437405 10.7041782 -1 7 C-0.67 4.69 -0.34 2.38 0 0 Z " fill="#7F9FDA" transform="translate(92,68)"/>
<path d="M0 0 C5.5 3 5.5 3 7 6 C7.14851844 7.93359586 7.22130833 9.87342097 7.25 11.8125 C7.27578125 12.85019531 7.3015625 13.88789063 7.328125 14.95703125 C6.95151852 18.44960798 6.14312477 20.23421061 4 23 C0.01265854 25.68268986 -4.35521055 25.82794821 -9 25 C-12.28175318 22.47031526 -13.69243777 20.92268669 -15 17 C-15.40603893 12.39301988 -15.54360209 8.30464502 -13.75 4 C-9.96558705 -0.32504337 -5.60474806 -0.9036446 0 0 Z " fill="#1D2636" transform="translate(215,147)"/>
<path d="M0 0 C5.5 3 5.5 3 7 6 C8.02766765 17.25380317 8.02766765 17.25380317 5.1875 21.6875 C2.25093064 24.79187333 -0.25884191 25.19237183 -4.375 25.375 C-8.1850748 25.35017867 -8.83684542 25.12916405 -12 22.625 C-15.79962824 17.63798793 -15.49548697 13.12280324 -15 7 C-13.76669872 3.97841187 -12.84362995 2.65615663 -10.3125 0.6875 C-6.83687341 -0.34579439 -3.55923458 -0.57384972 0 0 Z " fill="#1C2536" transform="translate(58,147)"/>
<path d="M0 0 C3.3 0 6.6 0 10 0 C11.32 4.29 12.64 8.58 14 13 C15.90389849 10.14415227 16.69462177 8.0688238 17.625 4.8125 C17.88539063 3.91144531 18.14578125 3.01039063 18.4140625 2.08203125 C18.60742188 1.39496094 18.80078125 0.70789063 19 0 C21.97 0 24.94 0 28 0 C28 8.25 28 16.5 28 25 C25.36 25 22.72 25 20 25 C20.33 24.01 20.66 23.02 21 22 C21.068991 19.93854893 21.08467727 17.87498599 21.0625 15.8125 C21.0315625 12.9353125 21.0315625 12.9353125 21 10 C19.35 14.95 17.7 19.9 16 25 C14.35 25 12.7 25 11 25 C9.35 19.39 7.7 13.78 6 8 C5.979375 10.248125 5.95875 12.49625 5.9375 14.8125 C5.92589844 16.07707031 5.91429687 17.34164062 5.90234375 18.64453125 C5.83840884 21.99605237 5.83840884 21.99605237 7 25 C4.69 25 2.38 25 0 25 C0 16.75 0 8.5 0 0 Z " fill="#212A3A" transform="translate(167,147)"/>
<path d="M0 0 C14 -0.42857143 14 -0.42857143 19 3 C19.40178571 11.03571429 19.40178571 11.03571429 16 15 C16.433125 15.55429688 16.86625 16.10859375 17.3125 16.6796875 C17.869375 17.40414062 18.42625 18.12859375 19 18.875 C19.556875 19.59429687 20.11375 20.31359375 20.6875 21.0546875 C22 23 22 23 22 25 C19.03 25 16.06 25 13 25 C12.814375 23.6078125 12.814375 23.6078125 12.625 22.1875 C12.18466918 18.86074765 12.18466918 18.86074765 10 16 C7.94074861 15.27617533 7.94074861 15.27617533 6 15 C6.45822468 18.46941546 6.89131683 21.67395049 8 25 C5.36 25 2.72 25 0 25 C0 16.75 0 8.5 0 0 Z " fill="#1F2838" transform="translate(96,147)"/>
<path d="M0 0 C5.94 0 11.88 0 18 0 C18 1.65 18 3.3 18 5 C14.37 4.67 10.74 4.34 7 4 C7 6.31 7 8.62 7 11 C9.64 10.34 12.28 9.68 15 9 C15 11.31 15 13.62 15 16 C14.34 16 13.68 16 13 16 C13 15.34 13 14.68 13 14 C11.02 14 9.04 14 7 14 C7 16.31 7 18.62 7 21 C10.63 20.67 14.26 20.34 18 20 C18 21.65 18 23.3 18 25 C12.06 25 6.12 25 0 25 C0.495 23.515 0.495 23.515 1 22 C1.0918277 20.55432014 1.13066598 19.10484172 1.1328125 17.65625 C1.13410156 16.82222656 1.13539063 15.98820313 1.13671875 15.12890625 C1.13285156 14.26136719 1.12898437 13.39382812 1.125 12.5 C1.12886719 11.63246094 1.13273438 10.76492187 1.13671875 9.87109375 C1.13542969 9.03707031 1.13414062 8.20304688 1.1328125 7.34375 C1.13168457 6.58255859 1.13055664 5.82136719 1.12939453 5.03710938 C1.0741715 2.79675812 1.0741715 2.79675812 0 0 Z " fill="#242D3D" transform="translate(144,147)"/>
<path d="M0 0 C2.64 0 5.28 0 8 0 C8 0.99 8 1.98 8 3 C7.34 3 6.68 3 6 3 C6.14058476 5.45873768 6.28722999 7.91685175 6.4375 10.375 C6.47681641 11.07367188 6.51613281 11.77234375 6.55664062 12.4921875 C6.74280134 16.37360492 6.74280134 16.37360492 8 20 C11.465 19.505 11.465 19.505 15 19 C15.02697137 16.39576408 15.04682489 13.79180756 15.0625 11.1875 C15.07087891 10.44951172 15.07925781 9.71152344 15.08789062 8.95117188 C15.10259828 5.70077932 15.03531702 3.10595105 14 0 C16.31 0 18.62 0 21 0 C20.91280537 3.06383902 20.80589603 6.12484051 20.6875 9.1875 C20.66494141 10.05181641 20.64238281 10.91613281 20.61914062 11.80664062 C20.41613371 16.62344103 20.15704637 20.11020707 17 24 C14.74015891 25.12992055 13.20273513 25.29799956 10.6875 25.4375 C9.92824219 25.49808594 9.16898438 25.55867188 8.38671875 25.62109375 C5.39171204 24.84170575 3.86111735 23.38193788 2.00170898 20.94067383 C0.07183884 17.20181499 0.21549232 13.255422 0.1875 9.125 C0.16236328 8.24585938 0.13722656 7.36671875 0.11132812 6.4609375 C0.05281805 4.3077668 0.02345764 2.15383779 0 0 Z " fill="#1C2536" transform="translate(70,147)"/>
<path d="M0 0 C2 2 2 2 2 5 C1.28416748 4.97679687 0.56833496 4.95359375 -0.16918945 4.9296875 C-10.28975877 4.75295034 -20.14814865 5.84097755 -30.1875 7 C-32.70739637 7.28906905 -35.22745952 7.57583736 -37.74836731 7.85595703 C-39.30177501 8.02868524 -40.85464923 8.20632167 -42.40678406 8.39013672 C-48.04153313 9.01855122 -53.23548307 9 -59 9 C-59 18.24 -59 27.48 -59 37 C-59.99 37 -60.98 37 -62 37 C-62.17707265 26.96588331 -61.62277469 17.00887894 -61 7 C-50.84655645 5.29894472 -40.68530262 4.23032134 -30.43579102 3.32275391 C-22.74421809 2.63609031 -15.16336481 1.81054481 -7.57055664 0.38476562 C-4.97019878 -0.0044607 -2.62287225 -0.20797367 0 0 Z " fill="#121C2E" transform="translate(135,22)"/>
<path d="M0 0 C1.875 0.25 1.875 0.25 4 1 C6.4079275 4.47654677 6.21761831 7.68183029 6.16015625 11.8125 C6.1523539 12.78860229 6.1523539 12.78860229 6.14439392 13.78442383 C6.126643 15.85651402 6.09549049 17.92810085 6.0625 20 C6.03480791 22.07184986 6.01009239 24.14362579 5.99131775 26.21557617 C5.97352582 28.0956141 5.94611632 29.9755537 5.91821289 31.85546875 C5.98610726 34.46585524 6.21801642 36.5295296 7 39 C4.525 39.495 4.525 39.495 2 40 C2 45.28 2 50.56 2 56 C1.67 56 1.34 56 1 56 C1 50.72 1 45.44 1 40 C0.34 40 -0.32 40 -1 40 C-0.96447021 38.99098633 -0.92894043 37.98197266 -0.89233398 36.94238281 C-0.76179997 33.19288718 -0.63869859 29.44317776 -0.51782227 25.69335938 C-0.46450728 24.0715468 -0.40918643 22.44979885 -0.35180664 20.828125 C-0.26960167 18.4949334 -0.19465225 16.16160324 -0.12109375 13.828125 C-0.09405869 13.10506165 -0.06702362 12.38199829 -0.03916931 11.63702393 C0.06187823 8.21583921 -0.10374461 5.29397207 -1 2 C-0.67 1.34 -0.34 0.68 0 0 Z " fill="#7B9CD8" transform="translate(72,59)"/>
<path d="M0 0 C0.66 0.33 1.32 0.66 2 1 C1.6875 2.9375 1.6875 2.9375 1 5 C0.01 5.33 -0.98 5.66 -2 6 C-2 5.34 -2 4.68 -2 4 C-4.31 4 -6.62 4 -9 4 C-9 5.32 -9 6.64 -9 8 C-8.154375 8.226875 -7.30875 8.45375 -6.4375 8.6875 C-2.32595149 10.25736398 0.50393484 12.34299048 4 15 C3.63768116 21.40096618 3.63768116 21.40096618 0.9375 23.9375 C-2.83409533 25.30169406 -6.03378658 25.62371905 -10 25 C-13 23.5 -13 23.5 -15 22 C-14.505 20.515 -14.505 20.515 -14 19 C-13.2265625 19.2165625 -13.2265625 19.2165625 -12.4375 19.4375 C-9.31490429 20.15809901 -6.17449308 20.57266439 -3 21 C-2.67 19.68 -2.34 18.36 -2 17 C-2.69867188 16.67386719 -3.39734375 16.34773438 -4.1171875 16.01171875 C-5.02726563 15.57472656 -5.93734375 15.13773438 -6.875 14.6875 C-7.77992188 14.25824219 -8.68484375 13.82898438 -9.6171875 13.38671875 C-12 12 -12 12 -14 9 C-14.4375 6.5625 -14.4375 6.5625 -14 4 C-10.06436691 -0.69736853 -5.71867098 -0.68534171 0 0 Z " fill="#202939" transform="translate(242,147)"/>
<path d="M0 0 C0.66 0.33 1.32 0.66 2 1 C1.67 2.65 1.34 4.3 1 6 C0.01 6 -0.98 6 -2 6 C-2 5.34 -2 4.68 -2 4 C-4.31 4 -6.62 4 -9 4 C-9 5.32 -9 6.64 -9 8 C-8.13375 8.2475 -7.2675 8.495 -6.375 8.75 C-2.5114731 10.18093589 1.05349564 12.05349564 4 15 C3.76744186 21.27906977 3.76744186 21.27906977 0.9375 23.9375 C-2.83409533 25.30169406 -6.03378658 25.62371905 -10 25 C-13 23.5 -13 23.5 -15 22 C-14.505 20.515 -14.505 20.515 -14 19 C-13.2265625 19.2165625 -13.2265625 19.2165625 -12.4375 19.4375 C-8.68622308 20.30317929 -4.85745596 21 -1 21 C-1.12310643 19.06652795 -1.12310643 19.06652795 -2 17 C-4.23610722 15.53294242 -4.23610722 15.53294242 -6.9375 14.4375 C-11.79661017 12.30508475 -11.79661017 12.30508475 -14 9 C-14.4375 6.5625 -14.4375 6.5625 -14 4 C-10.06436691 -0.69736853 -5.71867098 -0.68534171 0 0 Z " fill="#1F2738" transform="translate(136,147)"/>
<path d="M0 0 C0.99 0.66 1.98 1.32 3 2 C2.34 3.32 1.68 4.64 1 6 C0.34 6 -0.32 6 -1 6 C-1 5.34 -1 4.68 -1 4 C-3.35171131 4.59861742 -5.6859378 5.26924352 -8 6 C-9.17635297 8.35270593 -9.13359359 9.820752 -9.125 12.4375 C-9.12757812 13.21996094 -9.13015625 14.00242188 -9.1328125 14.80859375 C-9.08382548 17.17895347 -9.08382548 17.17895347 -8 20 C-3.58937864 21.0257259 -1.07369424 21.03684712 3 19 C3 20.32 3 21.64 3 23 C-0.1672064 25.11147093 -3.25542841 25.46888193 -7.03125 25.3984375 C-10.35497067 24.72577975 -11.94818657 22.54922275 -14 20 C-14.33 19.67 -14.66 19.34 -15 19 C-16.08649939 8.0108347 -16.08649939 8.0108347 -13.953125 4.0625 C-9.82455557 -0.01749803 -5.61519924 -0.65603318 0 0 Z " fill="#1F2838" transform="translate(35,147)"/>
<path d="M0 0 C9.68927865 2.68885322 17.47902105 1.75564123 27.140625 -0.70898438 C28.55698242 -1.05413086 28.55698242 -1.05413086 30.00195312 -1.40625 C34.72389217 -2.49766553 34.72389217 -2.49766553 39.203125 -4.27148438 C40.74925514 -4.18496807 42.29221887 -4.03145802 43.828125 -3.83398438 C44.64539063 -3.73214844 45.46265625 -3.6303125 46.3046875 -3.52539062 C46.93117188 -3.44160156 47.55765625 -3.3578125 48.203125 -3.27148438 C48.203125 -2.94148438 48.203125 -2.61148438 48.203125 -2.27148438 C47.61934082 -2.13572998 47.03555664 -1.99997559 46.43408203 -1.86010742 C43.73132835 -1.22964277 41.02973392 -0.5943358 38.328125 0.04101562 C37.4103125 0.25435547 36.4925 0.46769531 35.546875 0.6875 C30.09582533 1.97348707 24.74385101 3.41819484 19.40844727 5.12402344 C11.08496762 7.40553961 3.31517651 4.61407506 -4.71191406 2.31054688 C-8.3667231 1.29028168 -12.05067739 0.38778537 -15.734375 -0.52148438 C-16.43892822 -0.69647461 -17.14348145 -0.87146484 -17.86938477 -1.05175781 C-19.51159471 -1.45949022 -21.15419004 -1.86566996 -22.796875 -2.27148438 C-16.36936049 -6.64219424 -6.83702984 -2.00148535 0 0 Z " fill="#263965" transform="translate(119.796875,39.271484375)"/>
<path d="M0 0 C2.3914456 1.70496004 2.93822086 2.6354474 3.43359375 5.55859375 C3.44406559 13.27633756 3.44406559 13.27633756 1.3125 16.75 C-1 18 -1 18 -3.5625 17.9375 C-6.21676891 16.91662734 -7.27993414 16.23951595 -9 14 C-9.3984375 11.40625 -9.3984375 11.40625 -9.375 8.5 C-9.38273437 7.5409375 -9.39046875 6.581875 -9.3984375 5.59375 C-9 3 -9 3 -7.6640625 1.1796875 C-5.07427387 -0.65626595 -3.07812588 -0.38476574 0 0 Z " fill="#F3F3F4" transform="translate(57,151)"/>
<path d="M0 0 C1.66796875 1.21484375 1.66796875 1.21484375 3 3 C3.36328125 5.33984375 3.36328125 5.33984375 3.3125 7.9375 C3.30863281 8.79214844 3.30476562 9.64679688 3.30078125 10.52734375 C2.98041401 13.16101213 2.48990944 14.80720969 1 17 C-2.125 17.75 -2.125 17.75 -5 18 C-7.44335512 15.70935458 -8.86357446 13.9018446 -9.37109375 10.546875 C-9.5407935 3.71895579 -9.5407935 3.71895579 -7.66015625 1.21875 C-5.08300623 -0.67318131 -3.09646484 -0.38705811 0 0 Z " fill="#F4F5F5" transform="translate(214,151)"/>
<path d="M0 0 C1.875 1.0625 1.875 1.0625 3 3 C3.63316583 8.90954774 3.63316583 8.90954774 1.875 11.9375 C-0.88980433 13.50422245 -2.88188517 13.38976435 -6 13 C-7.875 12 -7.875 12 -9 10 C-9.41998341 7.14761266 -9.27946081 4.93433851 -9 2 C-5.53076119 -0.31282587 -4.07794425 -0.42478586 0 0 Z " fill="#F1F4F8" transform="translate(170,184)"/>
<path d="M0 0 C1.875 1.0625 1.875 1.0625 3 3 C3.63316583 8.90954774 3.63316583 8.90954774 1.875 11.9375 C-0.88980433 13.50422245 -2.88188517 13.38976435 -6 13 C-7.875 11.9375 -7.875 11.9375 -9 10 C-9.63316583 4.09045226 -9.63316583 4.09045226 -7.875 1.0625 C-5.11019567 -0.50422245 -3.11811483 -0.38976435 0 0 Z " fill="#B2BEDA" transform="translate(191,184)"/>
<path d="M0 0 C6.0546875 -0.1953125 6.0546875 -0.1953125 8 0 C8.66 0.66 9.32 1.32 10 2 C9.96712417 4.72869407 9.43602229 7.2966618 9 10 C9.66 10.33 10.32 10.66 11 11 C11 11.66 11 12.32 11 13 C9.68 12.67 8.36 12.34 7 12 C6.67 10.68 6.34 9.36 6 8 C4.68 8 3.36 8 2 8 C2 9.65 2 11.3 2 13 C1.34 13 0.68 13 0 13 C0 8.71 0 4.42 0 0 Z " fill="#6E84B9" transform="translate(142,184)"/>
<path d="M0 0 C0.99 0 1.98 0 3 0 C3.99 2.97 4.98 5.94 6 9 C6.66 9 7.32 9 8 9 C8.12375 8.071875 8.2475 7.14375 8.375 6.1875 C9 3 9 3 11 0 C11.66 0 12.32 0 13 0 C13 4.29 13 8.58 13 13 C12.34 13 11.68 13 11 13 C10.67 11.35 10.34 9.7 10 8 C9.34 9.65 8.68 11.3 8 13 C7.01 12.67 6.02 12.34 5 12 C3.8125 9.4375 3.8125 9.4375 3 7 C2.67 8.98 2.34 10.96 2 13 C1.34 13 0.68 13 0 13 C0 8.71 0 4.42 0 0 Z " fill="#6C84B9" transform="translate(203,184)"/>
<path d="M0 0 C6.25107435 0.42954941 12.04204521 1.01401507 18 3 C18 3.66 18 4.32 18 5 C11.92972642 7.1583195 6.40629424 7.20852314 0 7 C0 4.69 0 2.38 0 0 Z " fill="#F8F9FB" transform="translate(76,32)"/>
<path d="M0 0 C0.99 0 1.98 0 3 0 C3.67305018 1.60149886 4.33822227 3.20631029 5 4.8125 C5.37125 5.70582031 5.7425 6.59914062 6.125 7.51953125 C7 10 7 10 7 13 C6.34 13 5.68 13 5 13 C5 12.01 5 11.02 5 10 C2.69 10 0.38 10 -2 10 C-2 10.99 -2 11.98 -2 13 C-2.99 13 -3.98 13 -5 13 C-4.54554036 11.58208592 -4.08625056 10.16571954 -3.625 8.75 C-3.24214844 7.56664062 -3.24214844 7.56664062 -2.8515625 6.359375 C-2.04826333 4.13372042 -1.10288338 2.09068328 0 0 Z " fill="#6C84B9" transform="translate(89,184)"/>
<path d="M0 0 C2.33294775 -0.04241723 4.66702567 -0.04092937 7 0 C8 1 8 1 8.125 4 C8 7 8 7 7 8 C4.66702567 8.04092937 2.33294775 8.04241723 0 8 C0 5.36 0 2.72 0 0 Z " fill="#E7E8EA" transform="translate(102,151)"/>
<path d="M0 0 C1.010625 0.0825 2.02125 0.165 3.0625 0.25 C3.7225 1.24 4.3825 2.23 5.0625 3.25 C2.7525 2.92 0.4425 2.59 -1.9375 2.25 C-1.9375 2.91 -1.9375 3.57 -1.9375 4.25 C-0.803125 4.6625 0.33125 5.075 1.5 5.5 C5.0625 7.25 5.0625 7.25 6.125 9.3125 C6.0625 11.25 6.0625 11.25 4.0625 13.25 C0.5625 13.5625 0.5625 13.5625 -2.9375 13.25 C-3.5975 12.26 -4.2575 11.27 -4.9375 10.25 C-2.2975 10.58 0.3425 10.91 3.0625 11.25 C2.7325 10.26 2.4025 9.27 2.0625 8.25 C-1.44044871 6.53432339 -1.44044871 6.53432339 -4.9375 5.25 C-3.82553359 0.32557733 -3.82553359 0.32557733 0 0 Z " fill="#667FB6" transform="translate(108.9375,183.75)"/>
<path d="M0 0 C0 0.66 0 1.32 0 2 C5.94 2.99 5.94 2.99 12 4 C11.67 4.66 11.34 5.32 11 6 C5.22721294 6.24795864 0.16645104 5.33663941 -5.4375 4 C-6.26443359 3.80921875 -7.09136719 3.6184375 -7.94335938 3.421875 C-9.96382366 2.95471563 -11.98214547 2.47830626 -14 2 C-14 1.67 -14 1.34 -14 1 C-12.41693353 0.83081732 -10.83353281 0.66476064 -9.25 0.5 C-8.36828125 0.4071875 -7.4865625 0.314375 -6.578125 0.21875 C-4 0 -4 0 0 0 Z " fill="#3B4D75" transform="translate(90,30)"/>
<path d="M0 0 C1.875 1.0625 1.875 1.0625 3 3 C3.63316583 8.90954774 3.63316583 8.90954774 1.875 11.9375 C-0.88980433 13.50422245 -2.88188517 13.38976435 -6 13 C-7.875 12 -7.875 12 -9 10 C-9.41998341 7.14761266 -9.27946081 4.93433851 -9 2 C-5.53076119 -0.31282587 -4.07794425 -0.42478586 0 0 Z M-6.8125 2.125 C-8.30906118 4.07269207 -8.30906118 4.07269207 -7.75 7.125 C-7.29066476 9.87790841 -7.29066476 9.87790841 -6 11 C-3 11.16666667 -3 11.16666667 0 11 C1.39287806 9.82963695 1.39287806 9.82963695 1.1875 6.5625 C1.39564928 2.94967279 1.39564928 2.94967279 -1 1 C-4.78911589 0.64842476 -4.78911589 0.64842476 -6.8125 2.125 Z " fill="#5F79B3" transform="translate(170,184)"/>
<path d="M0 0 C0 0.99 0 1.98 0 3 C-1.65 2.67 -3.3 2.34 -5 2 C-5 2.66 -5 3.32 -5 4 C-1.535 5.485 -1.535 5.485 2 7 C1.125 11.875 1.125 11.875 0 13 C-2.9375 13.25 -2.9375 13.25 -6 13 C-6.66 12.01 -7.32 11.02 -8 10 C-5.36 10.33 -2.72 10.66 0 11 C-0.33 10.01 -0.66 9.02 -1 8 C-4.50294871 6.28432339 -4.50294871 6.28432339 -8 5 C-8 3.68 -8 2.36 -8 1 C-5.29120665 -0.35439668 -2.99066732 -0.06501451 0 0 Z " fill="#607AB3" transform="translate(131,184)"/>
<path d="M0 0 C0.66 0.99 1.32 1.98 2 3 C0.88625 2.814375 -0.2275 2.62875 -1.375 2.4375 C-4.82568861 1.68319343 -4.82568861 1.68319343 -7 3 C-7.04254356 4.99954746 -7.04080783 7.00041636 -7 9 C-5.81575674 10.41577477 -5.81575674 10.41577477 -2.4375 10.0625 C-0.7359375 10.0315625 -0.7359375 10.0315625 1 10 C1 10.66 1 11.32 1 12 C-1.82883747 13.41441874 -3.87376745 13.31900332 -7 13 C-9.59814888 10.74827097 -9.95716454 9.34982295 -10.375 5.9375 C-10 3 -10 3 -8.9375 1.125 C-5.90185629 -0.63763183 -3.42201828 -0.37331109 0 0 Z " fill="#607AB3" transform="translate(58,184)"/>
<path d="M0 0 C1.45823212 -0.0270043 2.91660675 -0.04639787 4.375 -0.0625 C5.18710938 -0.07410156 5.99921875 -0.08570313 6.8359375 -0.09765625 C9 0 9 0 11 1 C10.67 2.65 10.34 4.3 10 6 C9.01 6 8.02 6 7 6 C7 5.34 7 4.68 7 4 C4.69 4 2.38 4 0 4 C0 2.68 0 1.36 0 0 Z " fill="#2D3545" transform="translate(127,147)"/>
<path d="M0 0 C1.45823212 -0.0270043 2.91660675 -0.04639787 4.375 -0.0625 C5.18710938 -0.07410156 5.99921875 -0.08570313 6.8359375 -0.09765625 C9 0 9 0 11 1 C10.6875 2.9375 10.6875 2.9375 10 5 C9.01 5.33 8.02 5.66 7 6 C7 5.34 7 4.68 7 4 C4.69 4 2.38 4 0 4 C0 2.68 0 1.36 0 0 Z " fill="#2C3443" transform="translate(233,147)"/>
<path d="M0 0 C2.875 -0.125 2.875 -0.125 6 0 C6.66 0.66 7.32 1.32 8 2 C7.96712417 4.72869407 7.43602229 7.2966618 7 10 C7.66 10.33 8.32 10.66 9 11 C9 11.66 9 12.32 9 13 C7.68 12.67 6.36 12.34 5 12 C4.67 10.68 4.34 9.36 4 8 C2.68 8 1.36 8 0 8 C0 7.34 0 6.68 0 6 C1.65 5.67 3.3 5.34 5 5 C5 4.01 5 3.02 5 2 C3.35 1.67 1.7 1.34 0 1 C0 0.67 0 0.34 0 0 Z " fill="#657EB6" transform="translate(144,184)"/>
<path d="M0 0 C5.28 0.33 10.56 0.66 16 1 C16 1.33 16 1.66 16 2 C13.03 2 10.06 2 7 2 C7 7.94 7 13.88 7 20 C6.67 20 6.34 20 6 20 C6 14.39 6 8.78 6 3 C3.03 2.505 3.03 2.505 0 2 C0 1.34 0 0.68 0 0 Z " fill="#384563" transform="translate(67,27)"/>
<path d="M0 0 C0.66 0 1.32 0 2 0 C2 3.63 2 7.26 2 11 C4.31 11 6.62 11 9 11 C9 11.66 9 12.32 9 13 C6.03 13 3.06 13 0 13 C0 8.71 0 4.42 0 0 Z " fill="#677EB6" transform="translate(68,184)"/>
<path d="M0 0 C0.99 0 1.98 0 3 0 C2.67 4.29 2.34 8.58 2 13 C1.34 13 0.68 13 0 13 C0 8.71 0 4.42 0 0 Z " fill="#627AB4" transform="translate(203,184)"/>
<path d="M0 0 C1.875 0.25 1.875 0.25 4 1 C5.25 3.0625 5.25 3.0625 6 5 C5 6 5 6 2.4375 6.0625 C1.2309375 6.0315625 1.2309375 6.0315625 0 6 C-1.125 2.25 -1.125 2.25 0 0 Z " fill="#7F9FD9" transform="translate(72,59)"/>
<path d="M0 0 C0.33 0 0.66 0 1 0 C1.33 6.27 1.66 12.54 2 19 C1.01 19 0.02 19 -1 19 C-0.67 12.73 -0.34 6.46 0 0 Z " fill="#4F6DB1" transform="translate(75,80)"/>
<path d="M0 0 C1.98 0 3.96 0 6 0 C5.67 1.32 5.34 2.64 5 4 C3.35 4 1.7 4 0 4 C0 2.68 0 1.36 0 0 Z " fill="#F6F8FB" transform="translate(144,186)"/>
<path d="M0 0 C0 0.99 0 1.98 0 3 C-3.96 2.67 -7.92 2.34 -12 2 C-12 1.67 -12 1.34 -12 1 C-7.95858806 0.36605303 -4.0934693 -0.12404452 0 0 Z " fill="#16233E" transform="translate(135,22)"/>
<path d="M0 0 C1.74627478 2.61941217 2.38722388 4.03824877 3 7 C1.35 7 -0.3 7 -2 7 C-1.125 1.125 -1.125 1.125 0 0 Z " fill="#DCE2EF" transform="translate(90,186)"/>
<path d="M0 0 C0.99 0 1.98 0 3 0 C2.67 1.32 2.34 2.64 2 4 C1.67 3.67 1.34 3.34 1 3 C0.34 4.98 -0.32 6.96 -1 9 C-1.66 9 -2.32 9 -3 9 C-2.44271087 5.65626525 -1.64826111 2.96687001 0 0 Z " fill="#617AB3" transform="translate(89,184)"/>
<path d="M0 0 C2.3381615 0.29758419 4.67182036 0.63239269 7 1 C7.66 1 8.32 1 9 1 C9 1.66 9 2.32 9 3 C6.21136993 4.39431504 4.07921132 4.25660094 1 4 C0.34 3.01 -0.32 2.02 -1 1 C-0.67 0.67 -0.34 0.34 0 0 Z " fill="#6C84B9" transform="translate(50,193)"/>
<path d="M0 0 C0.78375 0.04125 1.5675 0.0825 2.375 0.125 C2.375 0.785 2.375 1.445 2.375 2.125 C1.385 2.62 1.385 2.62 0.375 3.125 C-0.75850534 5.14169827 -0.75850534 5.14169827 -1.625 7.125 C-1.625 5.805 -1.625 4.485 -1.625 3.125 C-2.615 2.795 -3.605 2.465 -4.625 2.125 C-2.625 0.125 -2.625 0.125 0 0 Z " fill="#394C76" transform="translate(169.625,32.875)"/>
</svg>
